<?xml version="1.0" encoding="UTF-8" standalone="no"?>
<!-- Generator: Adobe Illustrator 25.0.0, SVG Export Plug-In . SVG Version: 6.00 Build 0)  -->

<svg
   xmlns:dc="http://purl.org/dc/elements/1.1/"
   xmlns:cc="http://creativecommons.org/ns#"
   xmlns:rdf="http://www.w3.org/1999/02/22-rdf-syntax-ns#"
   xmlns:svg="http://www.w3.org/2000/svg"
   xmlns="http://www.w3.org/2000/svg"
   xmlns:sodipodi="http://sodipodi.sourceforge.net/DTD/sodipodi-0.dtd"
   xmlns:inkscape="http://www.inkscape.org/namespaces/inkscape"
   version="1.1"
   id="Layer_1"
   x="0px"
   y="0px"
   viewBox="0 0 213.8 206"
   xml:space="preserve"
   sodipodi:docname="alsimcloud_log_sqr.svg"
   inkscape:version="0.92.5 (2060ec1f9f, 2020-04-08)"
   width="56.567917mm"
   height="54.504166mm"><metadata
   id="metadata3831"><rdf:RDF><cc:Work
       rdf:about=""><dc:format>image/svg+xml</dc:format><dc:type
         rdf:resource="http://purl.org/dc/dcmitype/StillImage" /><dc:title></dc:title></cc:Work></rdf:RDF></metadata><defs
   id="defs3829">
	
	
	
	
	
	
	
	
	
	
</defs><sodipodi:namedview
   pagecolor="#ffffff"
   bordercolor="#666666"
   borderopacity="1"
   objecttolerance="10"
   gridtolerance="10"
   guidetolerance="10"
   inkscape:pageopacity="0"
   inkscape:pageshadow="2"
   inkscape:window-width="1848"
   inkscape:window-height="1016"
   id="namedview3827"
   showgrid="false"
   inkscape:zoom="2.6553043"
   inkscape:cx="221.64045"
   inkscape:cy="77.484365"
   inkscape:window-x="1992"
   inkscape:window-y="27"
   inkscape:window-maximized="1"
   inkscape:current-layer="Layer_1"
   units="mm"
   width="210mm"
   fit-margin-top="0"
   fit-margin-left="0"
   fit-margin-right="0"
   fit-margin-bottom="0" />
<style
   type="text/css"
   id="style3792">
	.st0{fill:#4A4D4D;}
	.st1{fill:#BFBFC0;}
	.st2{fill:#787A7A;}
	.st3{fill:#D3D4D6;}
	.st4{fill:#10BEF0;}
</style>
<polygon
   style="fill:#bfbfc0"
   id="polygon3804"
   points="80,183.5 48.3,183.5 29.1,150.2 48.3,117 79.9,117 76.7,102 39.4,102 11.6,150.1 39.4,198.1 76.9,198.1 "
   class="st1"
   transform="translate(-11.6,-47)" /><polygon
   style="fill:#787a7a"
   id="polygon3806"
   points="224.6,204.9 206,173.3 190.8,177.6 206.5,204.9 187.3,238.2 148.9,238.2 133.4,211.2 123.1,221.2 141.4,253 196.9,253 "
   class="st2"
   transform="translate(-11.6,-47)" /><polygon
   style="fill:#d3d4d6"
   id="polygon3808"
   points="124.1,76.8 134.7,88.7 150,62.3 188.4,62.3 207.6,95.5 191.9,122.7 205.5,127.3 225.4,95.1 197.7,47 142.2,47 "
   class="st3"
   transform="translate(-11.6,-47)" /><polygon
   style="fill:#10bef0"
   id="polygon3810"
   points="128.4,105.3 97.9,135.7 105.9,143.7 121.8,127.8 121.8,182.8 134.3,182.8 134.3,127.8 150.7,144.2 159.1,135.9 128.4,105.3 "
   class="st4"
   transform="translate(-11.6,-47)" /><polygon
   style="fill:#bfbfc0"
   class="st1"
   points="80,183.5 48.3,183.5 29.1,150.2 48.3,117 79.9,117 76.7,102 39.4,102 11.6,150.1 39.4,198.1 76.9,198.1 "
   id="polygon3833"
   transform="translate(-11.6,-47)" /><polygon
   style="fill:#787a7a"
   class="st2"
   points="224.6,204.9 206,173.3 190.8,177.6 206.5,204.9 187.3,238.2 148.9,238.2 133.4,211.2 123.1,221.2 141.4,253 196.9,253 "
   id="polygon3835"
   transform="translate(-11.6,-47)" /><polygon
   style="fill:#d3d4d6"
   class="st3"
   points="124.1,76.8 134.7,88.7 150,62.3 188.4,62.3 207.6,95.5 191.9,122.7 205.5,127.3 225.4,95.1 197.7,47 142.2,47 "
   id="polygon3837"
   transform="translate(-11.6,-47)" /><polygon
   style="fill:#10bef0"
   class="st4"
   points="128.4,105.3 97.9,135.7 105.9,143.7 121.8,127.8 121.8,182.8 134.3,182.8 134.3,127.8 150.7,144.2 159.1,135.9 128.4,105.3 "
   id="polygon3839"
   transform="translate(-11.6,-47)" />
</svg>